# xmcd
#
# Track frame offsets:
#	150
#	14451
#	27928
#	41766
#	55742
#	69142
#	81275
#	95099
#	108922
#	123031
#	136575
#	150599
#	164331
#	180501
#	195152
#	210919
#	224454
#	238881
#	253093
#
# Disc length: 3577 seconds
#
# Revision: 1
# Processed by: cddbd v1.5.2PL0 Copyright (c) Steve Scherf et al.
# Submitted via: audiograbber 1.83.01
#
DISCID=f40df713
DTITLE=Gaby Albrecht - Sehnsuchtsmelodien (Best of)
DYEAR=2006
DGENRE=Country
TTITLE0=Das Lied meiner Berge
TTITLE1=Solange der Leuchtturm noch steht
TTITLE2=Ewige Liebe
TTITLE3=Irgendwann
TTITLE4=Bleib so lieb wie Du bist
TTITLE5=Ein kleines Dankeschön
TTITLE6=Ein neuer Tag - ein  neues Leben
TTITLE7=Ich hab mich so in Dich verliebt
TTITLE8=Sehnsucht hat ein verzaubertes Herz
TTITLE9=Irgendwie wird das Leben weitergeh'n
TTITLE10=Du bist das Licht
TTITLE11=Mein Herz bleibt Dir treu
TTITLE12=Gott sei Dank
TTITLE13=Rosen müssen gar nicht sein
TTITLE14=Man kann nicht alles haben
TTITLE15=Ein Hauch von Ewigkeit
TTITLE16=Blüten eines Baums
TTITLE17=Einmal mit Dir
TTITLE18=Bis wir uns wiederseh'n
EXTD=
EXTT0=
EXTT1=
EXTT2=
EXTT3=
EXTT4=
EXTT5=
EXTT6=
EXTT7=
EXTT8=
EXTT9=
EXTT10=
EXTT11=
EXTT12=
EXTT13=
EXTT14=
EXTT15=
EXTT16=
EXTT17=
EXTT18=
PLAYORDER=
